<mxfile host="app.diagrams.net" agent="Mozilla/5.0 (Windows NT 10.0; Win64; x64) AppleWebKit/537.36 (KHTML, like Gecko) Chrome/132.0.0.0 Safari/537.36" version="26.0.6">
  <diagram name="Страница — 1" id="Bf7q_lR3LGRqEKbgM3KI">
    <mxGraphModel dx="574" dy="298" grid="1" gridSize="10" guides="1" tooltips="1" connect="1" arrows="1" fold="1" page="1" pageScale="1" pageWidth="1000" pageHeight="1000" math="0" shadow="0">
      <root>
        <mxCell id="0" />
        <mxCell id="1" parent="0" />
        <mxCell id="Vm32FbJ98e-wxBxpchi0-1" value="f5=EF[f4]" style="text;html=1;align=center;verticalAlign=middle;whiteSpace=wrap;rounded=0;" vertex="1" parent="1">
          <mxGeometry x="290" y="80" width="60" height="30" as="geometry" />
        </mxCell>
        <mxCell id="Vm32FbJ98e-wxBxpchi0-2" value="f4=E[f1Uf3]" style="text;html=1;align=center;verticalAlign=middle;whiteSpace=wrap;rounded=0;" vertex="1" parent="1">
          <mxGeometry x="350" y="150" width="60" height="30" as="geometry" />
        </mxCell>
        <mxCell id="Vm32FbJ98e-wxBxpchi0-4" value="f3=&lt;span style=&quot;color: rgb(51, 51, 51); font-family: &amp;quot;YS Text&amp;quot;, -apple-system, BlinkMacSystemFont, Arial, Helvetica, sans-serif; font-size: 14px; text-align: start; background-color: rgb(255, 255, 255);&quot;&gt;¬&lt;/span&gt;f2" style="text;html=1;align=center;verticalAlign=middle;whiteSpace=wrap;rounded=0;" vertex="1" parent="1">
          <mxGeometry x="410" y="200" width="60" height="30" as="geometry" />
        </mxCell>
        <mxCell id="Vm32FbJ98e-wxBxpchi0-5" value="f1=Authorized" style="text;html=1;align=center;verticalAlign=middle;whiteSpace=wrap;rounded=0;" vertex="1" parent="1">
          <mxGeometry x="320" y="250" width="60" height="30" as="geometry" />
        </mxCell>
        <mxCell id="Vm32FbJ98e-wxBxpchi0-6" value="f2=Authorized" style="text;html=1;align=center;verticalAlign=middle;whiteSpace=wrap;rounded=0;" vertex="1" parent="1">
          <mxGeometry x="460" y="260" width="60" height="30" as="geometry" />
        </mxCell>
        <mxCell id="Vm32FbJ98e-wxBxpchi0-7" value="Ф1 = EF [ E [ Authorized U&amp;nbsp;&lt;span style=&quot;color: rgb(51, 51, 51); font-family: &amp;quot;YS Text&amp;quot;, -apple-system, BlinkMacSystemFont, Arial, Helvetica, sans-serif; font-size: 14px; text-align: start; background-color: rgb(255, 255, 255);&quot;&gt;¬&amp;nbsp;&lt;/span&gt;Authorized ]]" style="text;html=1;align=center;verticalAlign=middle;whiteSpace=wrap;rounded=0;" vertex="1" parent="1">
          <mxGeometry x="120" y="300" width="460" height="30" as="geometry" />
        </mxCell>
        <mxCell id="Vm32FbJ98e-wxBxpchi0-8" value="" style="endArrow=none;html=1;rounded=0;entryX=0.25;entryY=1;entryDx=0;entryDy=0;exitX=0.285;exitY=0.217;exitDx=0;exitDy=0;exitPerimeter=0;" edge="1" parent="1" source="Vm32FbJ98e-wxBxpchi0-7" target="Vm32FbJ98e-wxBxpchi0-1">
          <mxGeometry width="50" height="50" relative="1" as="geometry">
            <mxPoint x="470" y="310" as="sourcePoint" />
            <mxPoint x="520" y="260" as="targetPoint" />
          </mxGeometry>
        </mxCell>
        <mxCell id="Vm32FbJ98e-wxBxpchi0-9" value="" style="endArrow=none;html=1;rounded=0;entryX=0.75;entryY=1;entryDx=0;entryDy=0;exitX=0.133;exitY=-0.15;exitDx=0;exitDy=0;exitPerimeter=0;" edge="1" parent="1" source="Vm32FbJ98e-wxBxpchi0-2" target="Vm32FbJ98e-wxBxpchi0-1">
          <mxGeometry width="50" height="50" relative="1" as="geometry">
            <mxPoint x="276" y="307" as="sourcePoint" />
            <mxPoint x="330" y="110" as="targetPoint" />
          </mxGeometry>
        </mxCell>
        <mxCell id="Vm32FbJ98e-wxBxpchi0-11" value="" style="endArrow=none;html=1;rounded=0;entryX=0.25;entryY=0;entryDx=0;entryDy=0;exitX=0.5;exitY=1;exitDx=0;exitDy=0;" edge="1" parent="1" source="Vm32FbJ98e-wxBxpchi0-2" target="Vm32FbJ98e-wxBxpchi0-5">
          <mxGeometry width="50" height="50" relative="1" as="geometry">
            <mxPoint x="368" y="156" as="sourcePoint" />
            <mxPoint x="345" y="120" as="targetPoint" />
          </mxGeometry>
        </mxCell>
        <mxCell id="Vm32FbJ98e-wxBxpchi0-12" value="" style="endArrow=none;html=1;rounded=0;entryX=1;entryY=1;entryDx=0;entryDy=0;exitX=0.5;exitY=0;exitDx=0;exitDy=0;" edge="1" parent="1" source="Vm32FbJ98e-wxBxpchi0-4" target="Vm32FbJ98e-wxBxpchi0-2">
          <mxGeometry width="50" height="50" relative="1" as="geometry">
            <mxPoint x="378" y="166" as="sourcePoint" />
            <mxPoint x="355" y="130" as="targetPoint" />
          </mxGeometry>
        </mxCell>
        <mxCell id="Vm32FbJ98e-wxBxpchi0-14" value="" style="endArrow=none;html=1;rounded=0;entryX=0.75;entryY=1;entryDx=0;entryDy=0;exitX=0.25;exitY=0;exitDx=0;exitDy=0;" edge="1" parent="1" source="Vm32FbJ98e-wxBxpchi0-6" target="Vm32FbJ98e-wxBxpchi0-4">
          <mxGeometry width="50" height="50" relative="1" as="geometry">
            <mxPoint x="388" y="176" as="sourcePoint" />
            <mxPoint x="365" y="140" as="targetPoint" />
          </mxGeometry>
        </mxCell>
        <mxCell id="Vm32FbJ98e-wxBxpchi0-15" value="" style="endArrow=none;html=1;rounded=0;entryX=0.6;entryY=0.053;entryDx=0;entryDy=0;exitX=0.25;exitY=1;exitDx=0;exitDy=0;entryPerimeter=0;" edge="1" parent="1" source="Vm32FbJ98e-wxBxpchi0-4" target="Vm32FbJ98e-wxBxpchi0-7">
          <mxGeometry width="50" height="50" relative="1" as="geometry">
            <mxPoint x="398" y="186" as="sourcePoint" />
            <mxPoint x="375" y="150" as="targetPoint" />
          </mxGeometry>
        </mxCell>
        <mxCell id="Vm32FbJ98e-wxBxpchi0-18" value="" style="endArrow=none;html=1;rounded=0;entryX=0.681;entryY=0.04;entryDx=0;entryDy=0;exitX=0.5;exitY=1;exitDx=0;exitDy=0;entryPerimeter=0;" edge="1" parent="1" source="Vm32FbJ98e-wxBxpchi0-6" target="Vm32FbJ98e-wxBxpchi0-7">
          <mxGeometry width="50" height="50" relative="1" as="geometry">
            <mxPoint x="418" y="206" as="sourcePoint" />
            <mxPoint x="395" y="170" as="targetPoint" />
          </mxGeometry>
        </mxCell>
        <mxCell id="Vm32FbJ98e-wxBxpchi0-19" value="" style="endArrow=none;html=1;rounded=0;entryX=0.25;entryY=1;entryDx=0;entryDy=0;exitX=0.39;exitY=0.02;exitDx=0;exitDy=0;exitPerimeter=0;" edge="1" parent="1" source="Vm32FbJ98e-wxBxpchi0-7" target="Vm32FbJ98e-wxBxpchi0-2">
          <mxGeometry width="50" height="50" relative="1" as="geometry">
            <mxPoint x="428" y="216" as="sourcePoint" />
            <mxPoint x="405" y="180" as="targetPoint" />
            <Array as="points">
              <mxPoint x="310" y="230" />
            </Array>
          </mxGeometry>
        </mxCell>
        <mxCell id="Vm32FbJ98e-wxBxpchi0-20" value="" style="endArrow=none;html=1;rounded=0;entryX=0.75;entryY=1;entryDx=0;entryDy=0;exitX=0.563;exitY=0.087;exitDx=0;exitDy=0;exitPerimeter=0;" edge="1" parent="1" source="Vm32FbJ98e-wxBxpchi0-7" target="Vm32FbJ98e-wxBxpchi0-2">
          <mxGeometry width="50" height="50" relative="1" as="geometry">
            <mxPoint x="438" y="226" as="sourcePoint" />
            <mxPoint x="415" y="190" as="targetPoint" />
            <Array as="points">
              <mxPoint x="410" y="240" />
            </Array>
          </mxGeometry>
        </mxCell>
      </root>
    </mxGraphModel>
  </diagram>
</mxfile>
